<svg width="47" height="47" viewBox="0 0 47 47" fill="none" xmlns="http://www.w3.org/2000/svg">
<path d="M23.5 47C36.4787 47 47 36.4787 47 23.5C47 10.5213 36.4787 0 23.5 0C10.5213 0 0 10.5213 0 23.5C0 36.4787 10.5213 47 23.5 47Z" fill="black"/>
<path d="M26.8086 23.375L27.3008 20.1406H24.1719V18.0312C24.1719 17.1172 24.5938 16.2734 26 16.2734H27.4414V13.4961C27.4414 13.4961 26.1406 13.25 24.9102 13.25C22.3438 13.25 20.6562 14.832 20.6562 17.6445V20.1406H17.7734V23.375H20.6562V31.25H24.1719V23.375H26.8086Z" fill="white"/>
</svg>
