<svg width="120" height="36" viewBox="0 0 120 36" fill="none" xmlns="http://www.w3.org/2000/svg">
<path d="M0.711059 15.0636H14.1032V20.3949H0.711059V15.0636ZM13.3781 7.59986C13.0938 7.23023 12.781 6.96012 12.4398 6.78951C12.127 6.61891 11.7858 6.53362 11.4162 6.53362C10.9897 6.53362 10.6201 6.63313 10.3073 6.83216C10.023 7.0312 9.79551 7.34396 9.62491 7.77046C9.45431 8.19696 9.36901 8.75141 9.36901 9.43382V34.6826H3.18476V7.81311C3.18476 6.33458 3.45488 5.0693 3.99511 4.01726C4.56378 2.96523 5.38834 2.15488 6.46881 1.58622C7.57771 1.01755 8.94251 0.733213 10.5632 0.733213C11.5584 0.733213 12.3972 0.861163 13.0796 1.11706C13.762 1.34453 14.3448 1.62886 14.8282 1.97007C15.3116 2.28283 15.6954 2.58138 15.9798 2.86571L13.3781 7.59986ZM17.3339 1.41561H23.8167V34.6826H17.3339V1.41561ZM28.6588 7.68517C28.6588 6.66157 29.0284 5.837 29.7677 5.21146C30.507 4.5575 31.3884 4.23051 32.412 4.23051C33.464 4.23051 34.3455 4.5575 35.0563 5.21146C35.7956 5.837 36.1652 6.66157 36.1652 7.68517C36.1652 8.70877 35.7956 9.54755 35.0563 10.2015C34.3455 10.8555 33.464 11.1825 32.412 11.1825C31.3884 11.1825 30.507 10.8555 29.7677 10.2015C29.0284 9.54755 28.6588 8.70877 28.6588 7.68517ZM29.2986 15.0636H35.5255V34.6826H29.2986V15.0636ZM41.0003 1.41561H47.1846V34.6826H41.0003V1.41561ZM54.3071 15.0636H62.0268L53.6247 23.1671L62.8798 34.6826H55.2881L45.9051 23.1671L54.3071 15.0636Z" fill="white"/>
<path d="M74.2736 20.9067H65.7863V15.0636H84.9788L75.1693 28.8396H83.614V34.6826H63.995L74.2736 20.9067ZM86.5915 24.8731C86.5915 22.7975 87.0749 20.992 88.0416 19.4566C89.0083 17.9212 90.3447 16.727 92.0507 15.874C93.7567 15.021 95.676 14.5945 97.8085 14.5945C99.941 14.5945 101.846 15.021 103.524 15.874C105.23 16.727 106.566 17.9212 107.533 19.4566C108.528 20.992 109.025 22.7975 109.025 24.8731C109.025 26.9203 108.528 28.7116 107.533 30.247C106.566 31.7824 105.23 32.9766 103.524 33.8296C101.846 34.6826 99.941 35.1091 97.8085 35.1091C95.676 35.1091 93.7567 34.6826 92.0507 33.8296C90.3447 32.9766 89.0083 31.7824 88.0416 30.247C87.0749 28.7116 86.5915 26.9203 86.5915 24.8731ZM93.2023 24.8731C93.2023 25.8967 93.4155 26.7781 93.842 27.5174C94.2685 28.2282 94.823 28.7827 95.5054 29.1808C96.1878 29.5788 96.9555 29.7779 97.8085 29.7779C98.633 29.7779 99.3865 29.5788 100.069 29.1808C100.78 28.7827 101.334 28.2282 101.732 27.5174C102.159 26.7781 102.372 25.8967 102.372 24.8731C102.372 23.8495 102.159 22.9681 101.732 22.2288C101.334 21.4895 100.78 20.9209 100.069 20.5228C99.3865 20.1247 98.633 19.9257 97.8085 19.9257C96.9555 19.9257 96.1878 20.1247 95.5054 20.5228C94.823 20.9209 94.2685 21.4895 93.842 22.2288C93.4155 22.9681 93.2023 23.8495 93.2023 24.8731ZM111.33 31.7824C111.33 30.702 111.714 29.7779 112.482 29.0102C113.249 28.2425 114.202 27.8586 115.339 27.8586C116.533 27.8586 117.5 28.2425 118.239 29.0102C118.979 29.7779 119.348 30.702 119.348 31.7824C119.348 32.8629 118.979 33.787 118.239 34.5547C117.5 35.3224 116.533 35.7062 115.339 35.7062C114.202 35.7062 113.249 35.3224 112.482 34.5547C111.714 33.787 111.33 32.8629 111.33 31.7824Z" fill="#D9121F"/>
</svg>
