<svg width="47" height="47" viewBox="0 0 47 47" fill="none" xmlns="http://www.w3.org/2000/svg">
<path d="M23.5 47C36.4787 47 47 36.4787 47 23.5C47 10.5213 36.4787 0 23.5 0C10.5213 0 0 10.5213 0 23.5C0 36.4787 10.5213 47 23.5 47Z" fill="black"/>
<path d="M24.875 18.207C22.625 18.207 20.832 20.0352 20.832 22.25C20.832 24.5 22.625 26.293 24.875 26.293C27.0898 26.293 28.918 24.5 28.918 22.25C28.918 20.0352 27.0898 18.207 24.875 18.207ZM24.875 24.8867C23.4336 24.8867 22.2383 23.7266 22.2383 22.25C22.2383 20.8086 23.3984 19.6484 24.875 19.6484C26.3164 19.6484 27.4766 20.8086 27.4766 22.25C27.4766 23.7266 26.3164 24.8867 24.875 24.8867ZM30.0078 18.0664C30.0078 17.5391 29.5859 17.1172 29.0586 17.1172C28.5312 17.1172 28.1094 17.5391 28.1094 18.0664C28.1094 18.5938 28.5312 19.0156 29.0586 19.0156C29.5859 19.0156 30.0078 18.5938 30.0078 18.0664ZM32.6797 19.0156C32.6094 17.75 32.3281 16.625 31.4141 15.7109C30.5 14.7969 29.375 14.5156 28.1094 14.4453C26.8086 14.375 22.9062 14.375 21.6055 14.4453C20.3398 14.5156 19.25 14.7969 18.3008 15.7109C17.3867 16.625 17.1055 17.75 17.0352 19.0156C16.9648 20.3164 16.9648 24.2188 17.0352 25.5195C17.1055 26.7852 17.3867 27.875 18.3008 28.8242C19.25 29.7383 20.3398 30.0195 21.6055 30.0898C22.9062 30.1602 26.8086 30.1602 28.1094 30.0898C29.375 30.0195 30.5 29.7383 31.4141 28.8242C32.3281 27.875 32.6094 26.7852 32.6797 25.5195C32.75 24.2188 32.75 20.3164 32.6797 19.0156ZM30.9922 26.8906C30.7461 27.5938 30.1836 28.1211 29.5156 28.4023C28.4609 28.8242 26 28.7188 24.875 28.7188C23.7148 28.7188 21.2539 28.8242 20.2344 28.4023C19.5312 28.1211 19.0039 27.5938 18.7227 26.8906C18.3008 25.8711 18.4062 23.4102 18.4062 22.25C18.4062 21.125 18.3008 18.6641 18.7227 17.6094C19.0039 16.9414 19.5312 16.4141 20.2344 16.1328C21.2539 15.7109 23.7148 15.8164 24.875 15.8164C26 15.8164 28.4609 15.7109 29.5156 16.1328C30.1836 16.3789 30.7109 16.9414 30.9922 17.6094C31.4141 18.6641 31.3086 21.125 31.3086 22.25C31.3086 23.4102 31.4141 25.8711 30.9922 26.8906Z" fill="white"/>
</svg>
