<svg width="47" height="47" viewBox="0 0 47 47" fill="none" xmlns="http://www.w3.org/2000/svg">
<path d="M23.5 47C36.4787 47 47 36.4787 47 23.5C47 10.5213 36.4787 0 23.5 0C10.5213 0 0 10.5213 0 23.5C0 36.4787 10.5213 47 23.5 47Z" fill="black"/>
<path d="M33.3008 17.6445C33.0898 16.8008 32.4219 16.1328 31.6133 15.9219C30.1016 15.5 24.125 15.5 24.125 15.5C24.125 15.5 18.1133 15.5 16.6016 15.9219C15.793 16.1328 15.125 16.8008 14.9141 17.6445C14.4922 19.1211 14.4922 22.2852 14.4922 22.2852C14.4922 22.2852 14.4922 25.4141 14.9141 26.9258C15.125 27.7695 15.793 28.4023 16.6016 28.6133C18.1133 29 24.125 29 24.125 29C24.125 29 30.1016 29 31.6133 28.6133C32.4219 28.4023 33.0898 27.7695 33.3008 26.9258C33.7227 25.4141 33.7227 22.2852 33.7227 22.2852C33.7227 22.2852 33.7227 19.1211 33.3008 17.6445ZM22.1562 25.1328V19.4375L27.1484 22.2852L22.1562 25.1328Z" fill="white"/>
</svg>
